<?xml version="1.0" encoding="utf-8"?>
<!-- Generator: Adobe Illustrator 18.1.1, SVG Export Plug-In . SVG Version: 6.00 Build 0)  -->
<svg version="1.1" id="Layer_1" xmlns="http://www.w3.org/2000/svg" xmlns:xlink="http://www.w3.org/1999/xlink" x="0px" y="0px"
	 viewBox="0 0 960 560" enable-background="new 0 0 960 560" xml:space="preserve">
<text transform="matrix(1 0 0 1 3853.8069 724.7911)" display="none" fill="#003A63" enable-background="new    " font-family="'Avenir-Heavy'" font-size="231.5041">®</text>
<g>
	<g>
		<g>
			<path fill="#FFFFFF" d="M352.8,169.5h-40c0,0,0,117.8,0,130c-7.5-9.9-102.7-130-102.7-130h-22.6v227.5h42.4c0,0,0-121.1,0-133.3
				c7.5,9.9,105.5,136.1,105.5,136.1h19.8V169.5H352.8z"/>
			<path fill="#FFFFFF" d="M478.6,167.7h-18.8l-90.9,230.8h49.5c0,0,14.6-42.4,15.5-45.2c3.3,0,70.2,0,73,0
				c0.9,2.8,16.5,45.2,16.5,45.2h48.5l-91.4-230.8C480.5,167.7,478.6,167.7,478.6,167.7z M469.6,245.8c3.8,10.8,22.1,67.4,23.6,72.5
				c-5.2,0-41.9,0-47.1,0C448,313.2,466.3,256.7,469.6,245.8z"/>
			<path fill="#FFFFFF" d="M595.4,201.1c-19.3,22.6-29.2,50.9-29.2,84.3c0,35.8,8.9,64.5,26.4,85.7c17.4,21.2,42.4,31.6,74.4,31.6
				c31.6,0,56.1-8.9,72.5-26.4l1.4-1.4l-20.7-36.3l-2.4,2.8c-11.3,14.6-27.3,21.7-47.6,21.7c-17.9,0-31.6-6.6-41.9-20.3
				c-7.5-9.9-16-36.3-16-55.6c0-23.6,5.7-42.9,17.4-57.9c11.3-15.1,25.9-22.6,43.8-22.6c18.8,0,32.5,4.2,41,12.7l2.4,2.4l18.8-37.7
				l-1.9-0.9c-15.5-10.8-36.7-16-62.6-16C640.2,167.2,614.7,178.5,595.4,201.1z"/>
			<path fill="#FFFFFF" d="M762.2,171h-2.4v227.5h51.8c78.2,0,118.2-41.5,118.2-122.5c0-32-9.9-57.9-29.2-77.3S855,169.5,822,169.5
				C813.5,169.5,794.2,170,762.2,171z M819.6,209.1c42.9,0,64.1,22.6,64.1,69.7c0,25.4-5.7,45.7-16.5,59.8
				c-10.8,13.7-25.9,20.7-45.2,20.7c-6.6,0-12.7-0.5-18.4-0.9c0-4.2,0-144.1,0-148.4C807.4,209.6,819.6,209.1,819.6,209.1z"/>
		</g>
		<polygon fill="#FFFFFF" points="254.4,143.2 209.6,37.6 164.4,143.2 		"/>
		<polygon fill="#FFFFFF" points="160.2,152.6 160.2,525.7 0,525.7 		"/>
		<g>
			<path fill="#FFFFFF" d="M214.8,463.9L195,438v25.4h-7.1v-41h3.3l19.3,24.5v-24.5h7.1v41.5L214.8,463.9L214.8,463.9z"/>
			<path fill="#FFFFFF" d="M251.1,463.5l-2.8-8.5h-14.1l-2.8,8.5h-8l16.5-41.5h3.3l16.5,41.5H251.1z M240.7,434.3l-4.7,15.1h9.9
				L240.7,434.3z"/>
			<path fill="#FFFFFF" d="M275.6,428.6V463h-7.1v-34.4h-13.2V422h33.9v6.6H275.6z"/>
			<path fill="#FFFFFF" d="M295.3,463.5v-41h7.1v41H295.3z"/>
			<path fill="#FFFFFF" d="M310,442.3c0-5.7,1.4-10.8,4.7-14.6c3.3-4.2,7.5-6.1,12.7-6.1c5.7,0,10.4,1.9,13.7,5.7
				c3.3,3.8,4.7,8.9,4.7,15.5c0,6.6-1.4,11.8-4.7,15.5c-3.3,3.8-8,5.7-13.7,5.7c-5.7,0-9.9-1.9-12.7-5.7
				C311.8,454.5,310,449.3,310,442.3z M317.5,442.3c0,4.7,0.9,8.5,2.4,11.3c1.4,2.8,3.8,3.8,7.1,3.8c3.8,0,6.6-1.4,8.5-3.8
				s2.8-6.1,2.8-11.3c0-9.4-3.3-14.1-10.4-14.1c-3.3,0-5.7,1.4-7.5,3.8C318.4,434.7,317.5,438,317.5,442.3z"/>
			<path fill="#FFFFFF" d="M380.1,463.9L360.4,438v25.4h-7.1v-41h3.3l19.3,24.5v-24.5h7.1v41.5L380.1,463.9L380.1,463.9z"/>
			<path fill="#FFFFFF" d="M416.4,463.5l-2.8-8.5h-14.1l-2.8,8.5h-8l16.5-41.5h3.3l16.5,41.5H416.4z M406.5,434.3l-4.7,15.1h9.9
				L406.5,434.3z"/>
			<path fill="#FFFFFF" d="M430.1,463.5v-41h7.1v34.4h18.4v6.6H430.1z"/>
			<path fill="#FFFFFF" d="M499.3,463.5l-2.8-8.5h-14.1l-2.8,8.5h-8L488,422h3.3l16.5,41.5H499.3z M489.4,434.3l-4.7,15.1h9.9
				L489.4,434.3z"/>
			<path fill="#FFFFFF" d="M511.1,461.1l2.8-6.6c2.8,1.9,5.7,2.8,8.5,2.8c4.2,0,6.6-1.4,6.6-4.2c0-1.4-0.5-2.8-1.4-3.8
				c-0.9-1.4-3.3-2.8-6.1-4.2c-3.3-1.4-5.2-2.8-6.1-3.8c-0.9-0.9-1.9-2.4-2.4-3.8c-0.5-1.4-0.9-2.8-0.9-4.7c0-3.3,0.9-5.7,3.3-8
				c2.4-1.9,5.2-3.3,8.9-3.3c4.7,0,8,0.9,10.4,2.8l-2.4,6.1c-2.4-1.9-5.2-2.8-8-2.8c-1.9,0-2.8,0.5-3.8,1.4
				c-0.9,0.9-1.4,1.9-1.4,3.3c0,2.4,2.8,4.7,8,7.5c2.8,1.4,4.7,2.4,6.1,3.8c1.4,0.9,2.4,2.4,2.8,3.8c0.5,1.4,0.9,3.3,0.9,5.2
				c0,3.3-1.4,6.1-3.8,8c-2.8,2.4-6.1,3.3-10.4,3.3C517.7,463.9,513.9,463,511.1,461.1z"/>
			<path fill="#FFFFFF" d="M541.2,461.1l2.8-6.6c2.8,1.9,5.7,2.8,8.5,2.8c4.2,0,6.6-1.4,6.6-4.2c0-1.4-0.5-2.8-1.4-3.8
				c-0.9-1.4-3.3-2.8-6.1-4.2c-3.3-1.4-5.2-2.8-6.1-3.8s-1.9-2.4-2.4-3.8c-0.5-1.4-0.9-2.8-0.9-4.7c0-3.3,0.9-5.7,3.3-8
				c2.4-1.9,5.2-3.3,8.9-3.3c4.7,0,8,0.9,10.4,2.8l-2.4,6.1c-2.4-1.9-5.2-2.8-8-2.8c-1.9,0-2.8,0.5-3.8,1.4
				c-0.9,0.9-1.4,1.9-1.4,3.3c0,2.4,2.4,4.7,8,7.5c2.8,1.4,4.7,2.4,6.1,3.8c1.4,0.9,2.4,2.4,2.8,3.8c0.5,1.4,0.9,3.3,0.9,5.2
				c0,3.3-1.4,6.1-3.8,8c-2.8,2.4-6.1,3.3-10.4,3.3C547.8,463.9,544.5,463,541.2,461.1z"/>
			<path fill="#FFFFFF" d="M571.9,442.3c0-5.7,1.4-10.8,4.7-14.6c3.3-4.2,7.5-6.1,12.7-6.1c5.7,0,10.4,1.9,13.7,5.7
				c3.3,3.8,4.7,8.9,4.7,15.5c0,6.6-1.4,11.8-4.7,15.5c-3.3,3.8-8,5.7-13.7,5.7s-9.9-1.9-12.7-5.7
				C573.3,454.5,571.9,449.3,571.9,442.3z M579.4,442.3c0,4.7,0.9,8.5,2.4,11.3c1.4,2.8,3.8,3.8,7.1,3.8c3.8,0,6.6-1.4,8.5-3.8
				c1.9-2.4,2.8-6.1,2.8-11.3c0-9.4-3.8-14.1-10.4-14.1c-3.3,0-5.7,1.4-7.5,3.8C579.9,434.7,579.4,438,579.4,442.3z"/>
			<path fill="#FFFFFF" d="M643,424.4l-2.8,6.1c-1.4-1.4-4.2-2.4-8-2.4c-3.3,0-6.1,1.4-8.5,4.2c-2.4,2.8-3.3,6.6-3.3,10.8
				c0,4.2,0.9,8,2.8,10.4c1.9,2.4,4.7,3.8,8,3.8c3.8,0,7.1-1.4,8.9-4.2l3.3,5.7c-2.8,3.3-7.1,4.7-13.2,4.7c-5.7,0-10.4-1.9-13.2-5.7
				c-3.3-3.8-4.7-8.9-4.7-15.5c0-6.1,1.9-11.3,5.2-15.1c3.3-4.2,8-6.1,13.7-6.1C636.4,421.6,640.2,422.5,643,424.4z"/>
			<path fill="#FFFFFF" d="M651,463.5v-41h7.1v41H651z"/>
			<path fill="#FFFFFF" d="M692,463.5l-2.8-8.5H675l-2.8,8.5h-8l16.5-41.5h3.3l16.5,41.5H692z M681.6,434.3l-4.7,15.1h9.9
				L681.6,434.3z"/>
			<path fill="#FFFFFF" d="M716.5,428.6V463h-7.1v-34.4h-13.2V422h33.9v6.6H716.5z"/>
			<path fill="#FFFFFF" d="M736.3,463.5v-41h7.1v41H736.3z"/>
			<path fill="#FFFFFF" d="M750.9,442.3c0-5.7,1.4-10.8,4.7-14.6c3.3-4.2,7.5-6.1,12.7-6.1c5.7,0,10.4,1.9,13.7,5.7
				c3.3,3.8,4.7,8.9,4.7,15.5c0,6.6-1.4,11.8-4.7,15.5c-3.3,3.8-8,5.7-13.7,5.7s-9.9-1.9-12.7-5.7
				C752.3,454.5,750.9,449.3,750.9,442.3z M758.4,442.3c0,4.7,0.9,8.5,2.4,11.3c1.4,2.8,3.8,3.8,7.1,3.8c3.8,0,6.6-1.4,8.5-3.8
				s2.8-6.1,2.8-11.3c0-9.4-3.3-14.1-10.4-14.1c-3.3,0-5.7,1.4-7.5,3.8C759.3,434.7,758.4,438,758.4,442.3z"/>
			<path fill="#FFFFFF" d="M821,463.9L801.3,438v25.4h-7.1v-41h3.3l19.3,24.5v-24.5h7.1v41.5L821,463.9L821,463.9z"/>
			<path fill="#FFFFFF" d="M849.8,442.3c0-5.7,1.4-10.8,4.7-14.6c3.3-4.2,7.5-6.1,12.7-6.1c5.7,0,10.4,1.9,13.7,5.7
				c3.3,3.8,4.7,8.9,4.7,15.5c0,6.6-1.4,11.8-4.7,15.5c-3.3,3.8-8,5.7-13.7,5.7s-9.9-1.9-12.7-5.7
				C851.2,454.5,849.8,449.3,849.8,442.3z M857.3,442.3c0,4.7,0.9,8.5,2.4,11.3s3.8,3.8,7.1,3.8c3.8,0,6.6-1.4,8.5-3.8
				c1.9-2.4,2.8-6.1,2.8-11.3c0-9.4-3.3-14.1-10.4-14.1c-3.3,0-5.7,1.4-7.5,3.8C858.3,434.7,857.3,438,857.3,442.3z"/>
			<path fill="#FFFFFF" d="M900.2,428.6v9.4h14.1v6.1h-14.1V463h-7.1v-41H920v6.6H900.2z"/>
			<path fill="#FFFFFF" d="M215.7,483.7l-2.8,6.1c-1.4-1.4-4.2-2.4-8-2.4c-3.3,0-6.1,1.4-8.5,4.2c-2.4,2.8-3.3,6.6-3.3,10.8
				c0,4.2,0.9,8,2.8,10.4c1.9,2.4,4.7,3.8,8,3.8c3.8,0,7.1-1.4,8.9-4.2l3.3,5.7c-2.8,3.3-7.1,4.7-13.2,4.7c-5.7,0-10.4-1.9-13.2-5.7
				c-3.3-3.8-4.7-8.9-4.7-15.5c0-6.1,1.9-11.3,5.2-15.1c3.3-4.2,8-6.1,13.7-6.1C209.1,480.9,212.9,481.8,215.7,483.7z"/>
			<path fill="#FFFFFF" d="M221.9,501.6c0-5.7,1.4-10.8,4.7-14.6c3.3-4.2,7.5-6.1,12.7-6.1c5.7,0,10.4,1.9,13.7,5.7
				c3.3,3.8,4.7,8.9,4.7,15.5c0,6.6-1.4,11.8-4.7,15.5c-3.3,3.8-8,5.7-13.7,5.7s-9.9-1.9-12.7-5.7
				C223.3,513.9,221.9,508.2,221.9,501.6z M229.4,501.6c0,4.7,0.9,8.5,2.4,11.3c1.4,2.8,3.8,3.8,7.1,3.8c3.8,0,6.6-1.4,8.5-3.8
				c1.9-2.4,2.8-6.1,2.8-11.3c0-9.4-3.3-14.1-10.4-14.1c-3.3,0-5.7,1.4-7.5,3.8C230.3,494.1,229.4,497.4,229.4,501.6z"/>
			<path fill="#FFFFFF" d="M288.3,522.4l-10.8-17c-0.9,0-2.8,0-4.7,0v17h-7.5v-41c0.5,0,1.9,0,4.7,0s4.7,0,6.6,0
				c10.4,0,15.5,4.2,15.5,12.2c0,2.4-0.9,4.7-2.4,6.6c-1.4,1.9-3.3,3.3-5.2,4.2l12.2,18.4h-8.5V522.4z M272.7,488v11.3
				c1.4,0,2.4,0,3.3,0c2.8,0,5.2-0.5,6.6-1.4c1.4-0.9,1.9-2.4,1.9-5.2c0-1.9-0.9-3.3-2.4-4.2c-1.4-0.9-3.8-1.4-7.1-1.4
				C274.6,488,273.7,488,272.7,488z"/>
			<path fill="#FFFFFF" d="M308.5,507.3v15.1h-7.1v-41c4.7,0,7.5-0.5,8.5-0.5c6.6,0,11.3,0.9,14.1,2.8c2.8,1.9,4.2,5.2,4.2,9.4
				c0,9.4-5.7,14.1-16.5,14.1C310.9,507.8,310,507.8,308.5,507.3z M308.5,488v13.2c1.4,0,2.4,0,2.8,0c3.3,0,5.7-0.5,7.1-1.9
				c1.4-0.9,2.4-2.8,2.4-5.2c0-4.2-3.3-6.1-10.4-6.1C310,488,309,488,308.5,488z"/>
			<path fill="#FFFFFF" d="M334,501.6c0-5.7,1.4-10.8,4.7-14.6c3.3-4.2,7.5-6.1,12.7-6.1c5.7,0,10.4,1.9,13.7,5.7
				c3.3,3.8,4.7,8.9,4.7,15.5c0,6.6-1.4,11.8-4.7,15.5c-3.3,3.8-8,5.7-13.7,5.7c-5.7,0-9.9-1.9-12.7-5.7
				C335.4,513.9,334,508.2,334,501.6z M341.5,501.6c0,4.7,0.9,8.5,2.4,11.3c1.4,2.8,3.8,3.8,7.1,3.8c3.8,0,6.6-1.4,8.5-3.8
				c1.9-2.4,2.8-6.1,2.8-11.3c0-9.4-3.3-14.1-10.4-14.1c-3.3,0-5.7,1.4-7.5,3.8C342.5,494.1,341.5,497.4,341.5,501.6z"/>
			<path fill="#FFFFFF" d="M400.4,522.4l-10.8-17c-0.9,0-2.8,0-4.7,0v17h-7.5v-41c0.5,0,1.9,0,4.7,0s4.7,0,6.6,0
				c10.4,0,15.5,4.2,15.5,12.2c0,2.4-0.9,4.7-2.4,6.6c-1.4,1.9-3.3,3.3-5.2,4.2l12.2,18.4h-8.5V522.4z M384.8,488v11.3
				c1.4,0,2.4,0,3.3,0c2.8,0,5.2-0.5,6.6-1.4c1.4-0.9,1.9-2.4,1.9-5.2c0-1.9-0.9-3.3-2.4-4.2c-1.4-0.9-3.8-1.4-7.1-1.4
				C386.3,488,385.3,488,384.8,488z"/>
			<path fill="#FFFFFF" d="M437.1,522.4l-2.8-8.5h-14.1l-2.8,8.5h-8l16.5-41.5h2.8l16.5,41.5H437.1z M426.8,493.6l-4.7,15.1h9.9
				L426.8,493.6z"/>
			<path fill="#FFFFFF" d="M461.6,488v34.4h-7.1V488h-13.2v-6.6h33.9v6.6H461.6z"/>
			<path fill="#FFFFFF" d="M488.5,488v9.4h13.7v6.6h-13.7v12.2h18.4v6.6h-25.9v-41h25.9v6.6h-18.4V488z"/>
			<path fill="#FFFFFF" d="M542.2,522.4h-8.9v-41c5.7,0,9.4-0.5,10.8-0.5c6.1,0,10.8,1.9,14.1,5.2c3.3,3.3,5.2,8,5.2,13.7
				C563.4,515.3,556.3,522.4,542.2,522.4z M540.3,488v27.8c0.9,0,2.4,0,3.8,0c3.8,0,6.6-1.4,8.5-3.8c1.9-2.8,3.3-6.6,3.3-11.3
				c0-8.9-4.2-13.2-12.2-13.2C542.6,488,541.7,488,540.3,488z"/>
			<path fill="#FFFFFF" d="M570.9,522.4v-41h7.1v41H570.9z"/>
			<path fill="#FFFFFF" d="M611,522.4l-10.8-17c-0.9,0-2.8,0-4.7,0v17h-7.5v-41c0.5,0,1.9,0,4.7,0s4.7,0,6.6,0
				c10.4,0,15.5,4.2,15.5,12.2c0,2.4-0.9,4.7-2.4,6.6c-1.4,1.9-3.3,3.3-5.2,4.2l12.2,18.4H611V522.4z M595.4,488v11.3
				c1.4,0,2.4,0,3.3,0c2.8,0,5.2-0.5,6.6-1.4c1.4-0.9,1.9-2.4,1.9-5.2c0-1.9-0.9-3.3-2.4-4.2c-1.4-0.9-3.8-1.4-7.1-1.4
				C597.3,488,596.3,488,595.4,488z"/>
			<path fill="#FFFFFF" d="M631.2,488v9.4h13.7v6.6h-13.7v12.2h18.4v6.6h-25.9v-41h25.9v6.6h-18.4V488z"/>
			<path fill="#FFFFFF" d="M685.4,483.7l-2.8,6.1c-1.4-1.4-4.2-2.4-8-2.4c-3.3,0-6.1,1.4-8.5,4.2c-2.4,2.8-3.3,6.6-3.3,10.8
				c0,4.2,0.9,8,2.8,10.4c1.9,2.4,4.7,3.8,8,3.8c3.8,0,7.1-1.4,8.9-4.2l3.3,5.7c-2.8,3.3-7.1,4.7-13.2,4.7c-5.7,0-10.4-1.9-13.2-5.7
				c-3.3-3.8-4.7-8.9-4.7-15.5c0-6.1,1.9-11.3,5.2-15.1c3.3-4.2,8-6.1,13.7-6.1C678.8,480.9,682.6,481.8,685.4,483.7z"/>
			<path fill="#FFFFFF" d="M710.3,488v34.4h-7.1V488h-13.2v-6.6H724v6.6H710.3z"/>
			<path fill="#FFFFFF" d="M724.5,501.6c0-5.7,1.4-10.8,4.7-14.6c3.3-4.2,7.5-6.1,12.7-6.1c5.7,0,10.4,1.9,13.7,5.7
				c3.3,3.8,4.7,8.9,4.7,15.5c0,6.6-1.4,11.8-4.7,15.5c-3.3,3.8-8,5.7-13.7,5.7s-9.9-1.9-12.7-5.7
				C725.9,513.9,724.5,508.2,724.5,501.6z M732,501.6c0,4.7,0.9,8.5,2.4,11.3c1.4,2.8,3.8,3.8,7.1,3.8c3.8,0,6.6-1.4,8.5-3.8
				c1.9-2.4,2.8-6.1,2.8-11.3c0-9.4-3.8-14.1-10.4-14.1c-3.3,0-5.7,1.4-7.5,3.8C732.5,494.1,732,497.4,732,501.6z"/>
			<path fill="#FFFFFF" d="M790.4,522.4l-10.8-17c-0.9,0-2.8,0-4.7,0v17h-7.5v-41c0.5,0,1.9,0,4.7,0c2.8,0,4.7,0,6.6,0
				c10.4,0,15.5,4.2,15.5,12.2c0,2.4-0.9,4.7-2.4,6.6c-1.4,1.9-3.3,3.3-5.2,4.2l12.2,18.4h-8.5V522.4z M774.9,488v11.3
				c1.4,0,2.4,0,3.3,0c2.8,0,5.2-0.5,6.6-1.4c1.4-0.9,1.9-2.4,1.9-5.2c0-1.9-0.9-3.3-2.4-4.2c-1.4-0.9-3.8-1.4-7.1-1.4
				C776.8,488,775.8,488,774.9,488z"/>
			<path fill="#FFFFFF" d="M801.7,520.5l2.8-6.6c2.8,1.9,5.7,2.8,8.5,2.8c4.2,0,6.6-1.4,6.6-4.2c0-1.4-0.5-2.8-1.4-3.8
				c-0.9-1.4-3.3-2.8-6.1-4.2c-3.3-1.4-5.2-2.8-6.1-3.8c-0.9-0.9-1.9-2.4-2.4-3.8c-0.5-1.4-0.9-2.8-0.9-4.7c0-3.3,0.9-5.7,3.3-8
				c2.4-1.9,5.2-3.3,8.9-3.3c4.7,0,8,0.9,10.4,2.8l-2.4,6.1c-2.4-1.9-5.2-2.8-8-2.8c-1.9,0-2.8,0.5-3.8,1.4s-1.4,1.9-1.4,3.3
				c0,2.4,2.8,4.7,8,7.5c2.8,1.4,4.7,2.4,6.1,3.8c1.4,0.9,2.4,2.4,2.8,3.8s0.9,3.3,0.9,5.2c0,3.3-1.4,6.1-3.8,8
				c-2.8,2.4-6.1,3.3-10.4,3.3C808.3,523.3,804.6,522.4,801.7,520.5z"/>
		</g>
	</g>
	<g>
		<path fill="#FFFFFF" d="M939.3,161.1c11.3,0,20.7,9.4,20.7,20.7c0,11.3-9.4,20.7-20.7,20.7s-20.7-9.4-20.7-20.7
			C919,170.5,928,161.1,939.3,161.1z M939.3,197.8c8.5,0,15.1-7.1,15.1-16s-6.6-16-15.1-16c-8.5,0-15.1,7.1-15.1,16
			S930.8,197.8,939.3,197.8z M931.7,171h7.1c5.2,0,9.9,0.9,9.9,6.1c0,3.8-2.4,6.1-4.7,6.6l5.7,8.5H944l-4.7-8.5h-1.4v8.5h-5.2V171
			H931.7z M936.9,179.9h2.4c1.4,0,3.3,0,3.3-2.4c0-2.4-2.4-2.4-3.3-2.4h-2.4V179.9z"/>
	</g>
</g>
</svg>
